<?xml version="1.0" standalone="no"?>
<!DOCTYPE svg PUBLIC "-//W3C//DTD SVG 20010904//EN"
 "http://www.w3.org/TR/2001/REC-SVG-20010904/DTD/svg10.dtd">
<svg version="1.0" xmlns="http://www.w3.org/2000/svg"
 width="203.000000pt" height="123.000000pt" viewBox="0 0 203.000000 123.000000"
 preserveAspectRatio="xMidYMid meet">

<g transform="translate(0.000000,123.000000) scale(0.100000,-0.100000)"
fill="#000000" stroke="none">
<path d="M335 963 c-21 -38 -72 -126 -113 -196 l-75 -129 21 -41 c12 -23 63
-114 114 -202 l93 -160 230 0 229 0 39 68 c38 65 38 69 21 82 -37 27 -67 40
-71 30 -2 -5 -12 -25 -23 -43 l-20 -32 -175 0 c-170 0 -175 1 -188 23 -76 123
-147 255 -147 272 1 11 36 81 79 155 l78 135 185 3 184 2 159 -111 c88 -61
167 -114 175 -117 8 -3 24 -14 37 -25 50 -44 338 -237 353 -237 20 0 50 31 50
52 0 22 -6 27 -390 293 l-355 245 -225 0 -226 0 -39 -67z"/>
<path d="M1188 963 l-37 -68 39 -27 c41 -30 44 -29 74 30 l17 32 177 0 177 0
60 -108 c33 -59 71 -126 84 -149 l23 -41 -83 -146 -84 -145 -184 -1 -185 0
-130 89 c-72 49 -232 159 -356 245 -123 86 -232 156 -242 156 -10 0 -25 -12
-35 -26 -21 -33 -13 -48 58 -96 30 -21 59 -41 64 -46 6 -4 62 -43 125 -87 63
-43 201 -139 307 -212 l191 -133 219 0 218 0 115 201 c63 110 115 202 115 204
0 1 -51 91 -114 199 l-113 196 -232 0 -232 0 -36 -67z"/>
</g>
</svg>
